# xmcd
#
# Track frame offsets: 
#        150
#        15981
#        40613
#        57953
#        75583
#        107647
#        136733
#        175277
#        189265
#        215086
#        232079
#        256363
#        299619
#
# Disc length: 4235 seconds
#
# Revision: 0
# Processed by: cddbd v1.5PL3 Copyright (c) Steve Scherf et al.
# Submitted via: ExactAudioCopy v0.95a4
#
DISCID=b010890d
DTITLE="Hurricane" Jan Laboy and In Step - Step Aside
DYEAR=1999
DGENRE=Blues
TTITLE0=Borrowed Time
TTITLE1=Step Aside
TTITLE2=I A'int Cryin'
TTITLE3=Time Don't Wait For No One
TTITLE4=Eye Of The Hurricane
TTITLE5=Long Time: No See
TTITLE6=A Blues Prayer
TTITLE7=My Baby
TTITLE8=If You Need Me
TTITLE9=Better Thangs
TTITLE10=The Old Man By The Sea
TTITLE11=Blue Wind
TTITLE12=Goin' Home
EXTD=
EXTT0=
EXTT1=
EXTT2=
EXTT3=
EXTT4=
EXTT5=
EXTT6=
EXTT7=
EXTT8=
EXTT9=
EXTT10=
EXTT11=
EXTT12=
PLAYORDER=
